<?xml version="1.0" encoding="UTF-8"?>
<svg id="a" data-name="Layer 1" xmlns="http://www.w3.org/2000/svg" viewBox="0 0 61.11 53.96">
  <defs>
    <style>
      .b {
        fill: #fff;
      }

      .b, .c {
        stroke: #000;
      }

      .b, .c, .d {
        stroke-miterlimit: 10;
      }

      .d {
        fill: #fff399;
        stroke: #937a4d;
      }
    </style>
  </defs>
  <path class="d" d="M9.63,37.47c-16-4.53-1.35-17.21-1.35-17.21C.98,2.98,20.23,8.36,20.23,8.36c10.97-16.74,19.08.53,19.08.53,19.79-6.07,16.81,11.27,14.92,16.22,14.71,6.96-1.28,23.66-8.34,18.38,1.06,11.97-15.87,10.89-21.42,4.68-8.45,4.89-17.73-1.36-14.84-10.7h0Z"/>
  <path class="b" d="M42.19,23.41c-3.13-10.16-10.23-5.1-8.88,5.55,1.26,9.93,13.13,8.26,8.88-5.55Z"/>
  <path class="b" d="M29.95,30.14c1.27-19.75-10.58-17.71-11.03,0-.24,9.32,10.38,10.15,11.03,0Z"/>
  <path class="c" d="M28.87,26.68c.29-3.51-2.85-4.48-3.17-.18-.47,6.25,2.77,5.14,3.17.18Z"/>
  <path class="c" d="M34.57,27.17c-.47-3.11,2.45-5.21,3.09,0,.61,5.03-2.54,3.67-3.09,0Z"/>
</svg>